<svg width="114" height="113" viewBox="0 0 114 113" fill="none" xmlns="http://www.w3.org/2000/svg">
<path d="M0 72.8924L8.37551 30.4529L76.3102 9L114 72.8924L46.0653 113L32.5714 87.8161L0 72.8924Z" fill="#E7BDF3"/>
<path d="M10 44.6323L14.702 20.9641L52.8408 9L74 44.6323L35.8612 67L28.2857 52.9552L10 44.6323Z" fill="white"/>
<path d="M52.4897 21.2168C51.8924 21.1929 51.3274 20.8418 51.0485 20.2539C47.9687 13.768 45.5474 9.01537 42.1568 2.51432C41.722 1.68098 42.0311 0.645092 42.8468 0.201254C43.6632 -0.242967 44.6763 0.072815 45.1107 0.906158C48.5211 7.44485 50.9569 12.2268 54.0601 18.7616C54.4636 19.6113 54.1163 20.6343 53.2846 21.0466C53.0287 21.1731 52.7561 21.2275 52.4897 21.2168Z" fill="black"/>
<path d="M38.3749 30.1097C37.9639 30.0929 37.5581 29.9227 37.2471 29.5989C35.7273 28.0178 34.3839 26.5437 32.962 24.9827C31.2209 23.072 29.2473 20.9064 26.4611 18.0017C25.814 17.3272 25.8248 16.2446 26.485 15.5834C27.1452 14.9222 28.2048 14.9332 28.852 15.6077C31.6683 18.5436 33.6571 20.7267 35.4119 22.6521C36.8797 24.2629 38.1472 25.6538 39.6354 27.2027C40.2833 27.8764 40.2736 28.959 39.6138 29.621C39.2709 29.9653 38.8197 30.1279 38.3749 30.1097Z" fill="black"/>
<path d="M29.0026 43.4671C28.801 43.4591 28.5972 43.4132 28.4012 43.3261C27.8908 43.0993 15.8455 37.7405 10.9023 35.1162C10.0818 34.6807 9.76271 33.6483 10.189 32.8104C10.6152 31.9721 11.6261 31.646 12.4459 32.0815C17.2868 34.6518 29.6126 40.1353 29.7368 40.1904C30.5845 40.567 30.9724 41.5747 30.6038 42.4408C30.3204 43.1057 29.6725 43.4941 29.0026 43.4671Z" fill="black"/>
</svg>
